<?xml version="1.0" standalone="no"?>
<!DOCTYPE svg PUBLIC "-//W3C//DTD SVG 20010904//EN"
 "http://www.w3.org/TR/2001/REC-SVG-20010904/DTD/svg10.dtd">
<svg version="1.0" xmlns="http://www.w3.org/2000/svg"
 width="1024.000000pt" height="1024.000000pt" viewBox="0 0 1024.000000 1024.000000"
 preserveAspectRatio="xMidYMid meet">
<metadata>
Created by potrace 1.11, written by Peter Selinger 2001-2013
</metadata>
<g transform="translate(0.000000,1024.000000) scale(0.100000,-0.100000)"
fill="#000000" stroke="none">
<path d="M3719 10235 c-2 -1 -31 -6 -64 -9 -117 -12 -248 -48 -358 -100 -391
-181 -649 -575 -768 -1171 -11 -55 -22 -114 -24 -131 -2 -18 -9 -69 -15 -114
-6 -46 -13 -113 -16 -149 -2 -36 -7 -97 -9 -136 -6 -87 -6 -478 0 -565 11
-175 17 -232 30 -329 8 -58 17 -117 20 -131 3 -14 10 -52 16 -85 73 -411 277
-803 524 -1005 138 -112 335 -209 480 -235 222 -39 405 -39 620 0 121 23 278
90 401 171 70 47 227 200 280 274 160 221 267 489 333 830 17 93 26 150 46
319 24 203 24 732 0 941 -5 39 -14 114 -21 175 -10 78 -54 291 -78 375 -137
492 -395 830 -746 977 -105 44 -134 53 -270 80 -65 12 -372 28 -381 18z m322
-434 c155 -40 297 -135 379 -252 13 -18 27 -36 30 -39 17 -14 75 -121 109
-203 71 -166 125 -386 147 -597 3 -30 7 -68 10 -85 18 -125 25 -615 11 -825
-10 -156 -16 -212 -43 -385 -28 -176 -93 -386 -162 -519 -120 -233 -299 -382
-507 -422 -22 -4 -47 -9 -55 -11 -34 -7 -209 -3 -258 6 -145 29 -242 81 -352
191 -193 193 -317 514 -365 950 -4 30 -8 71 -11 90 -23 189 -22 690 2 890 42
362 96 575 195 773 59 118 105 184 189 267 91 90 182 142 310 174 113 28 256
27 371 -3z"/>
<path d="M1415 10219 c-128 -14 -172 -21 -215 -30 -69 -15 -182 -49 -217 -65
-17 -8 -34 -14 -38 -14 -17 0 -176 -87 -242 -132 -269 -186 -477 -514 -592
-935 -17 -59 -32 -121 -35 -138 -3 -16 -8 -41 -11 -55 -10 -43 -14 -62 -29
-175 -25 -184 -31 -289 -30 -545 0 -283 8 -417 40 -625 12 -82 60 -290 84
-370 136 -441 390 -773 719 -939 122 -63 328 -127 446 -140 28 -4 61 -9 75
-12 14 -3 102 -7 195 -8 337 -6 605 49 881 179 107 50 254 138 254 151 0 3 -6
20 -14 37 -8 18 -40 98 -72 179 l-57 148 -91 -49 c-228 -123 -490 -208 -702
-228 -430 -41 -739 78 -958 369 -136 181 -233 460 -276 793 -38 287 -34 858 6
1095 3 19 8 46 10 60 65 403 209 690 428 856 40 30 76 54 80 54 5 0 20 8 34
18 47 32 169 74 284 98 46 9 155 17 233 17 289 1 546 -59 799 -185 43 -22 80
-38 82 -36 2 2 37 85 78 183 l74 179 -35 24 c-106 72 -353 167 -516 197 -12 3
-35 7 -50 11 -16 3 -38 7 -50 9 -12 1 -40 5 -62 9 -22 3 -58 8 -80 12 -61 8
-362 11 -430 3z"/>
<path d="M8132 8208 l3 -2023 1050 0 1050 0 0 205 0 205 -815 0 -815 0 -3 781
-2 780 777 0 778 0 3 205 2 205 -767 -1 c-423 0 -774 1 -780 3 -10 3 -13 138
-13 628 l0 624 807 0 c714 -1 808 1 813 14 4 12 5 354 1 389 -1 4 -471 7
-1046 7 l-1045 0 2 -2022z"/>
<path d="M5438 10159 c-7 -5 -13 -2334 -8 -3882 l0 -158 486 2 c267 1 505 5
527 9 23 5 67 11 97 14 243 29 547 159 750 323 298 241 480 527 593 933 22 77
57 263 63 335 3 33 9 85 14 115 9 58 6 567 -3 610 -3 14 -8 55 -12 91 -3 36
-10 80 -15 97 -5 18 -9 35 -9 37 2 41 -55 258 -101 383 -150 411 -457 757
-825 931 -136 64 -329 123 -450 137 -27 4 -53 8 -56 10 -25 14 -1028 27 -1051
13z m907 -413 c107 -8 174 -22 276 -56 163 -55 287 -131 412 -255 171 -169
291 -386 363 -655 28 -106 28 -106 39 -175 5 -27 9 -52 10 -55 1 -3 5 -41 9
-85 5 -44 10 -93 12 -110 6 -41 5 -391 0 -440 -3 -22 -8 -69 -11 -105 -3 -36
-8 -72 -10 -80 -2 -8 -7 -35 -10 -60 -29 -210 -139 -492 -261 -665 -61 -88
-189 -217 -274 -276 -125 -87 -297 -158 -430 -176 -19 -3 -54 -8 -76 -12 -23
-5 -143 -9 -268 -10 -181 -2 -226 0 -227 11 -4 64 -1 3197 4 3204 5 9 319 9
442 0z"/>
<path d="M289 4390 c-7 -29 -2 -477 5 -473 5 4 6 0 0 -8 -5 -8 -9 -843 -9
-1962 l0 -1947 4835 2 4835 3 0 2188 c0 1204 -2 2192 -5 2196 -6 8 -9659 9
-9661 1z m9336 -2192 l0 -1718 -50 0 c-425 -4 -8947 0 -8952 3 -5 3 -8 774 -8
1714 1 939 -3 1711 -7 1714 -5 3 2023 5 4504 5 l4513 -1 0 -1717z"/>
<path d="M939 3558 c-6 -20 -2 -691 5 -696 7 -4 593 -7 706 -3 l25 1 -1 347
-1 348 -366 3 c-202 1 -367 1 -368 0z"/>
<path d="M2029 3558 c-1 -2 -2 -158 -2 -347 -2 -314 -1 -344 15 -350 21 -7
701 -6 714 1 5 4 9 153 8 350 l-1 343 -366 3 c-202 1 -367 1 -368 0z"/>
<path d="M3118 3553 c-2 -5 -3 -163 -3 -352 l1 -344 349 1 c193 0 359 1 370 1
20 1 20 8 19 348 l-1 348 -366 3 c-201 1 -367 -1 -369 -5z"/>
<path d="M4209 3553 c-4 -33 -3 -693 1 -694 7 -1 681 -1 710 0 l25 1 -1 347
-1 348 -366 3 c-202 1 -367 -1 -368 -5z"/>
<path d="M5299 3558 c0 -2 -1 -159 -2 -351 l-2 -347 25 -1 c31 -1 667 -1 695
0 20 1 20 7 18 339 0 185 -1 343 -2 350 -1 9 -81 12 -366 12 -201 0 -365 -1
-366 -2z"/>
<path d="M6385 3210 c0 -226 4 -350 10 -351 13 -1 684 -1 710 0 20 1 20 8 20
349 l-1 347 -369 3 -370 2 0 -350z"/>
<path d="M7479 3558 c-1 -4 -1 -680 0 -693 1 -8 590 -12 721 -6 13 1 15 47 15
351 l0 350 -367 0 c-203 0 -368 -1 -369 -2z"/>
<path d="M8569 3558 c-1 -4 -1 -636 0 -673 l1 -30 343 2 c188 1 353 2 367 2
l25 1 -2 337 c0 186 -2 344 -2 351 -1 9 -81 12 -366 12 -201 0 -365 -1 -366
-2z"/>
<path d="M939 2560 c0 -3 -2 -161 -2 -352 l-2 -348 368 0 c286 0 367 3 368 13
7 93 2 680 -6 685 -12 7 -725 9 -726 2z"/>
<path d="M3119 2550 c-3 -47 -4 -667 -1 -677 3 -10 86 -13 368 -13 340 0 364
1 365 18 5 92 0 674 -5 679 -4 4 -169 7 -367 8 -312 0 -359 -2 -360 -15z"/>
<path d="M5303 2563 c-6 -2 -9 -585 -4 -685 1 -17 25 -18 366 -18 201 0 365 3
366 8 0 4 1 159 2 345 1 217 -2 341 -8 345 -9 6 -705 10 -722 5z"/>
<path d="M7482 2556 c-4 -7 -7 -570 -3 -673 l1 -23 365 0 c317 0 365 2 366 15
4 72 3 660 -2 672 -5 16 -38 17 -363 18 -212 0 -360 -4 -364 -9z"/>
<path d="M2028 2538 c-3 -11 -2 -671 1 -688 1 -3 165 -5 366 -5 201 0 365 2
366 5 1 7 1 672 0 688 -1 18 -727 18 -733 0z"/>
<path d="M4209 2543 c-4 -32 -3 -693 1 -694 3 -1 168 -2 368 -3 315 -1 362 1
363 14 3 52 4 667 1 678 -3 9 -86 12 -368 12 -200 0 -364 -3 -365 -7z"/>
<path d="M6389 2533 c-1 -23 -1 -653 0 -673 1 -13 48 -15 363 -14 200 1 365 2
368 3 4 1 5 664 1 694 -1 4 -165 7 -366 7 -341 0 -365 -1 -366 -17z"/>
<path d="M8569 2538 c0 -7 -1 -165 -2 -350 -2 -292 0 -337 13 -340 27 -6 706
-2 716 4 5 4 9 144 8 350 l0 343 -367 3 c-290 2 -367 0 -368 -10z"/>
<path d="M938 1527 c-3 -10 -2 -611 1 -672 1 -20 7 -20 364 -19 199 1 364 2
367 3 4 1 5 632 1 688 -1 17 -728 17 -733 0z"/>
<path d="M2028 1522 c-3 -14 -2 -644 1 -677 1 -14 731 -14 732 0 1 13 1 643 0
672 l-1 22 -364 0 c-333 0 -364 -2 -368 -17z"/>
<path d="M3119 1527 c-5 -61 -3 -666 2 -677 6 -13 237 -15 2001 -14 1096 1
1995 2 1998 3 4 1 5 622 1 683 -1 16 -135 17 -2001 17 -1538 0 -2000 -3 -2001
-12z"/>
<path d="M7479 1517 c-6 -164 -2 -670 6 -676 8 -6 703 -8 725 -2 3 0 5 157 4
349 l0 347 -367 2 -367 2 -1 -22z"/>
<path d="M8569 1517 c-6 -163 -2 -670 6 -675 12 -8 725 -10 726 -2 3 17 4 668
1 682 -4 15 -36 17 -368 17 l-364 0 -1 -22z"/>
</g>
</svg>
